<svg width="1280" height="640" viewBox="0 0 1280 640" fill="none" xmlns="http://www.w3.org/2000/svg">
  <defs>
    <linearGradient id="bg" x1="92" y1="68" x2="1182" y2="566" gradientUnits="userSpaceOnUse">
      <stop stop-color="#F4EFE4"/>
      <stop offset="1" stop-color="#E0F1EE"/>
    </linearGradient>
    <linearGradient id="panel" x1="752" y1="130" x2="1146" y2="520" gradientUnits="userSpaceOnUse">
      <stop stop-color="#0F2D45"/>
      <stop offset="1" stop-color="#174A6B"/>
    </linearGradient>
    <linearGradient id="accent" x1="820" y1="54" x2="1128" y2="268" gradientUnits="userSpaceOnUse">
      <stop stop-color="#F97316"/>
      <stop offset="1" stop-color="#FB923C"/>
    </linearGradient>
    <filter id="shadow" x="692" y="84" width="510" height="478" filterUnits="userSpaceOnUse" color-interpolation-filters="sRGB">
      <feFlood flood-opacity="0" result="BackgroundImageFix"/>
      <feColorMatrix in="SourceAlpha" type="matrix" values="0 0 0 0 0 0 0 0 0 0 0 0 0 0 0 0 0 0 127 0" result="hardAlpha"/>
      <feOffset dx="0" dy="24"/>
      <feGaussianBlur stdDeviation="24"/>
      <feComposite in2="hardAlpha" operator="out"/>
      <feColorMatrix type="matrix" values="0 0 0 0 0.0588235 0 0 0 0 0.176471 0 0 0 0 0.270588 0 0 0 0.18 0"/>
      <feBlend mode="normal" in2="BackgroundImageFix" result="effect1_dropShadow_0_1"/>
      <feBlend mode="normal" in="SourceGraphic" in2="effect1_dropShadow_0_1" result="shape"/>
    </filter>
  </defs>

  <rect x="24" y="24" width="1232" height="592" rx="36" fill="url(#bg)"/>

  <circle cx="1054" cy="110" r="94" fill="url(#accent)" opacity="0.96"/>
  <circle cx="1112" cy="532" r="70" fill="#0F766E" opacity="0.14"/>
  <circle cx="768" cy="544" r="48" fill="#F97316" opacity="0.12"/>
  <path d="M102 110C102 92.3269 116.327 78 134 78H374C391.673 78 406 92.3269 406 110V114C406 131.673 391.673 146 374 146H134C116.327 146 102 131.673 102 114V110Z" fill="#FFFFFF" fill-opacity="0.92"/>
  <path d="M98 492C98 474.327 112.327 460 130 460H410C427.673 460 442 474.327 442 492V494C442 511.673 427.673 526 410 526H130C112.327 526 98 511.673 98 494V492Z" fill="#FFFFFF" fill-opacity="0.76"/>

  <text x="128" y="116" fill="#0F2D45" font-family="Segoe UI, Helvetica Neue, Arial, sans-serif" font-size="20" font-weight="700" letter-spacing="3">WORDPRESS PLUGIN</text>
  <text x="100" y="220" fill="#0F172A" font-family="Segoe UI, Helvetica Neue, Arial, sans-serif" font-size="64" font-weight="700">WordPress Metadata</text>
  <text x="100" y="288" fill="#0F172A" font-family="Segoe UI, Helvetica Neue, Arial, sans-serif" font-size="64" font-weight="700">AI Generator</text>
  <text x="100" y="344" fill="#334155" font-family="Segoe UI, Helvetica Neue, Arial, sans-serif" font-size="28" font-weight="500">AI descriptions for excerpts, categories, tags,</text>
  <text x="100" y="384" fill="#334155" font-family="Segoe UI, Helvetica Neue, Arial, sans-serif" font-size="28" font-weight="500">and WordPress content workflows.</text>

  <rect x="100" y="430" width="164" height="40" rx="20" fill="#0F766E"/>
  <rect x="276" y="430" width="118" height="40" rx="20" fill="#0F2D45"/>
  <rect x="406" y="430" width="144" height="40" rx="20" fill="#F97316"/>
  <text x="128" y="455" fill="#FFFFFF" font-family="Segoe UI, Helvetica Neue, Arial, sans-serif" font-size="16" font-weight="700">OpenAI Compatible</text>
  <text x="307" y="455" fill="#FFFFFF" font-family="Segoe UI, Helvetica Neue, Arial, sans-serif" font-size="16" font-weight="700">Dry Run</text>
  <text x="439" y="455" fill="#FFFFFF" font-family="Segoe UI, Helvetica Neue, Arial, sans-serif" font-size="16" font-weight="700">Batch Tools</text>

  <text x="128" y="514" fill="#475569" font-family="Segoe UI, Helvetica Neue, Arial, sans-serif" font-size="22" font-weight="600">Generate first. Review output. Write to core fields.</text>

  <g filter="url(#shadow)">
    <rect x="740" y="108" width="414" height="382" rx="28" fill="url(#panel)"/>
  </g>

  <rect x="776" y="146" width="342" height="48" rx="16" fill="#F8FAFC" fill-opacity="0.08"/>
  <circle cx="808" cy="170" r="7" fill="#F97316"/>
  <circle cx="832" cy="170" r="7" fill="#FACC15"/>
  <circle cx="856" cy="170" r="7" fill="#34D399"/>
  <text x="892" y="176" fill="#E2E8F0" font-family="SFMono-Regular, Menlo, Consolas, monospace" font-size="18" font-weight="700">/chat/completions</text>

  <rect x="776" y="222" width="342" height="86" rx="20" fill="#FFFFFF" fill-opacity="0.08"/>
  <text x="804" y="255" fill="#94A3B8" font-family="SFMono-Regular, Menlo, Consolas, monospace" font-size="17" font-weight="700">target_kind</text>
  <text x="804" y="286" fill="#F8FAFC" font-family="SFMono-Regular, Menlo, Consolas, monospace" font-size="20" font-weight="700">post | page | term</text>

  <rect x="776" y="326" width="160" height="112" rx="20" fill="#FFFFFF" fill-opacity="0.08"/>
  <rect x="958" y="326" width="160" height="112" rx="20" fill="#FFFFFF" fill-opacity="0.08"/>
  <text x="804" y="358" fill="#94A3B8" font-family="SFMono-Regular, Menlo, Consolas, monospace" font-size="16" font-weight="700">output</text>
  <text x="804" y="389" fill="#F8FAFC" font-family="SFMono-Regular, Menlo, Consolas, monospace" font-size="18" font-weight="700">post_excerpt</text>
  <text x="986" y="358" fill="#94A3B8" font-family="SFMono-Regular, Menlo, Consolas, monospace" font-size="16" font-weight="700">mode</text>
  <text x="986" y="389" fill="#F8FAFC" font-family="SFMono-Regular, Menlo, Consolas, monospace" font-size="18" font-weight="700">dry_run=true</text>

  <rect x="920" y="76" width="184" height="44" rx="22" fill="#FFFFFF"/>
  <text x="956" y="104" fill="#0F2D45" font-family="Segoe UI, Helvetica Neue, Arial, sans-serif" font-size="18" font-weight="700">v0.1.1</text>
</svg>
